<svg width="280" height="80" viewBox="0 0 360 80" fill="none" xmlns="http://www.w3.org/2000/svg">
  <defs>
    <linearGradient id="iso_paint0" x1="425" y1="233" x2="81.5" y2="32" gradientUnits="userSpaceOnUse">
      <stop class="gradient-start" stop-color="#011D2D"/>
      <stop class="gradient-end" offset="1" stop-color="white" stop-opacity="0.15"/>
    </linearGradient>
    <linearGradient id="iso_paint1" x1="61" y1="231.494" x2="387.866" y2="231.494" gradientUnits="userSpaceOnUse">
      <stop offset="0.3125" stop-color="#00A3EE"/>
      <stop offset="0.591346" stop-color="#00A3FF"/>
      <stop offset="1" stop-color="#003780"/>
    </linearGradient>
    <linearGradient id="iso_paint2" x1="61" y1="231.494" x2="387.866" y2="231.494" gradientUnits="userSpaceOnUse">
      <stop offset="0.3125" stop-color="#00A3EE"/>
      <stop offset="0.591346" stop-color="#00A3FF"/>
      <stop offset="1" stop-color="#003780"/>
    </linearGradient>
    <linearGradient id="iso_paint3" x1="61" y1="231.494" x2="387.866" y2="231.494" gradientUnits="userSpaceOnUse">
      <stop offset="0.3125" stop-color="#00A3EE"/>
      <stop offset="0.591346" stop-color="#00A3FF"/>
      <stop offset="1" stop-color="#003780"/>
    </linearGradient>
    <linearGradient id="iso_paint4" x1="299.5" y1="238" x2="333" y2="238" gradientUnits="userSpaceOnUse">
      <stop stop-color="#0085DB"/>
      <stop offset="0.826923" stop-color="#004C98"/>
    </linearGradient>
    <linearGradient id="wm_paint0" x1="431.5" y1="64.5" x2="668.5" y2="201.5" gradientUnits="userSpaceOnUse">
      <stop offset="0.368772" stop-color="#EDEDED"/>
      <stop offset="0.723538" stop-color="#02111B"/>
    </linearGradient>
    <linearGradient id="wm_paint1" x1="445.033" y1="46.1514" x2="537" y2="98.5" gradientUnits="userSpaceOnUse">
      <stop stop-color="white"/>
      <stop offset="0.642295" stop-color="#F0F1F2"/>
    </linearGradient>
    <linearGradient id="wm_paint2" x1="480" y1="46" x2="535" y2="116.5" gradientUnits="userSpaceOnUse">
      <stop stop-color="white"/>
      <stop offset="0.592365" stop-color="#E0E2E3"/>
    </linearGradient>
    <linearGradient id="wm_paint3" x1="515" y1="-1.74553e-08" x2="550.5" y2="26" gradientUnits="userSpaceOnUse">
      <stop offset="0.0846526" stop-color="#F7F7F8"/>
      <stop offset="0.742157" stop-color="#999999"/>
    </linearGradient>

    <style>
      @keyframes playPulse {
        0%, 100% { transform: scale(1); opacity: 1; }
        50% { transform: scale(1.05); opacity: 0.8; }
      }
      @keyframes gradientShift {
        0%, 100% { stop-color: #011D2D; }
        50% { stop-color: #024a6b; }
      }
      @keyframes gradientShiftEnd {
        0%, 100% { stop-opacity: 0.15; }
        50% { stop-opacity: 0.35; }
      }
      @keyframes dashAnimation {
        0% { stroke-dashoffset: 2000; }
        100% { stroke-dashoffset: 0; }
      }
      @keyframes glow {
        0%, 100% { filter: drop-shadow(0 0 2px rgba(1, 29, 45, 0.5)); }
        50% { filter: drop-shadow(0 0 8px rgba(1, 29, 45, 0.6)) drop-shadow(0 0 12px rgba(255, 255, 255, 0.7)); }
      }
      .play-icon { animation: playPulse 2.5s ease-in-out infinite; transform-origin: center; }
      .main-path {
        stroke-dasharray: 2000;
        stroke-dashoffset: 2000;
        animation: dashAnimation 2s ease-out forwards, glow 2.5s ease-in-out infinite 2s;
      }
      .gradient-start { animation: gradientShift 2.5s ease-in-out infinite; }
      .gradient-end { animation: gradientShiftEnd 2.5s ease-in-out infinite; }
    </style>
  </defs>

  <g transform="translate(0, 0) scale(0.17204)">
    <g class="play-icon">
      <path class="main-path" d="M105.907 34.4695C93.3079 38.9322 83.2289 47.3221 73.6898 61.2458C54.4318 89.2715 43.2729 137.647 37.3335 216.369C34.6338 252.071 36.2536 327.044 40.2132 352.035C46.8726 394.877 60.0112 418.262 84.1288 429.508C93.1279 433.614 96.1876 434.149 114.006 433.971C128.044 433.971 137.763 432.721 147.302 430.222C201.837 415.406 301.547 365.602 365.26 321.689C391.178 303.66 421.595 274.027 428.794 259.747C438.513 240.289 436.893 222.082 423.394 201.91C389.918 151.035 251.512 62.3168 167.46 37.6827C147.122 31.6134 117.785 30.1853 105.907 34.4695ZM150.362 42.1454C200.577 52.4989 283.009 94.9838 356.081 148.358C381.099 166.566 413.315 199.233 420.515 213.513C428.434 229.222 428.434 241.003 420.695 256.534C403.956 289.558 333.764 338.469 233.154 386.845C146.762 428.437 104.647 436.291 77.6494 416.12C52.9919 397.555 42.0131 347.216 43.9929 260.104C45.6127 192.628 51.7321 142.645 63.0709 105.694C75.1297 66.0655 91.868 45.18 115.086 40.7173C127.324 38.3967 132.544 38.5752 150.362 42.1454Z" stroke="url(#iso_paint0)" stroke-width="9"/>
    </g>
    <path d="M108.413 283.202C104.119 283.45 100.887 283.027 97.2259 280.329C93.4664 276.915 91.3965 273.495 90.9438 268.431C90.9241 266.535 90.9869 264.663 91.0772 262.776L91.159 260.552C91.6389 248.745 92.4244 236.968 93.2103 225.197C93.2477 224.629 93.2849 224.062 93.3219 223.494C93.3847 222.532 93.4471 221.569 93.5089 220.606C95.2823 193.316 97.1442 171.296 101.416 166.592C104.551 164.159 107.695 162.797 111.903 163.155C116.447 164.018 119.944 165.595 123.041 169.176C125.801 174.295 126.307 178.556 125.596 184.02L125.38 186.074C125.228 187.508 123.207 210.961 123.041 212.393C122.642 215.86 122.302 219.335 121.969 222.813L121.76 224.981C120.667 236.744 120.18 248.605 119.693 260.446L119.693 260.448L119.639 261.761L119.526 264.283C119.458 265.823 119.398 267.364 119.345 268.905C118.994 276.686 116.05 280.961 108.413 283.202Z" fill="#00A3EE"/>
    <path fill-rule="evenodd" clip-rule="evenodd" d="M76.19 229.246C72.6784 227.472 68.7941 227.038 65.5845 229.587C62.2022 232.819 62.2022 232.819 61.5961 245.915L61.5323 247.331C60.5052 269.353 60.937 291.316 63.0679 313.273L63.2084 314.708C63.3404 316.073 63.4734 317.437 63.6139 318.801L63.7448 320.055C63.9931 322.578 64.3294 324.916 65.3539 327.285C67.1555 329.729 68.7104 330.966 71.7902 331.779C74.9815 331.904 77.4268 331.316 79.8356 329.282C82.4895 325.811 82.1645 322.294 81.6421 318.237C78.5333 294.996 78.5022 271.613 79.3861 248.249L79.5149 244.868L79.5257 244.576C79.5741 243.275 79.6225 241.973 79.6774 240.673L79.7192 239.683L79.7895 237.84C79.931 234.617 79.1666 231.318 76.19 229.246ZM319.9 298.331C319.472 295.555 318.3 293.788 316.419 291.918C313.515 290.317 310.269 289.773 307.382 291.684C307.023 291.964 306.675 292.237 306.326 292.509L305.148 293.418C304.391 294.004 303.63 294.583 302.864 295.154L301.784 295.948C296.249 300.015 290.665 303.986 285.05 307.911C283.762 308.808 282.478 309.713 281.198 310.625C276.004 314.368 270.673 317.783 265.277 321.148C263.23 322.424 261.19 323.712 259.157 325.015C254.528 327.983 249.887 330.884 245.145 333.62C244.955 333.727 244.764 333.834 244.573 333.941C241.205 335.833 237.698 337.803 235.512 341.337C234.744 344.034 234.704 346.433 235.512 349.158C236.896 351.406 238.244 352.931 240.436 354.141C242.908 354.717 245.014 354.571 247.324 353.385L248.855 352.409L250.553 351.343C251.625 350.662 252.704 349.993 253.788 349.336C273.439 337.594 292.79 325.032 311.318 311.155L312.326 310.398C314.199 309.01 316.048 307.629 317.742 305.969C319.54 303.712 320.035 301.304 319.9 298.331ZM227.657 357.426C226.903 355.193 225.936 353.692 223.962 352.347C221.228 351.006 218.655 350.889 215.921 352.177L214.936 352.698L213.787 353.3C196.783 362.256 179.547 370.633 161.503 377.291L160.206 377.767L157.753 378.675C143.534 383.781 149.434 399.147 162.438 394.261L163.593 393.805C164.878 393.314 166.163 392.821 167.444 392.319C168.348 391.964 169.254 391.611 170.16 391.259C176.433 388.828 182.657 386.316 188.772 383.508C190.201 382.841 191.633 382.18 193.068 381.523C202.655 377.153 212.213 372.591 221.39 367.402L222.413 366.814C223.577 366.165 224.554 365.519 225.629 364.708C227.371 362.285 227.928 360.364 227.657 357.426ZM222.184 283.855C221.017 281.563 219.727 280.192 217.403 279.074C214.93 278.803 213 278.822 210.812 280.019C200.451 285.751 189.983 291.229 179.283 296.298L178.107 296.854C174.15 298.728 170.194 300.601 166.189 302.368L165.276 302.771C164.155 303.27 151.687 309.644 150.565 310.142C150.34 310.237 150.116 310.33 149.893 310.423C147.561 311.396 145.42 312.288 143.841 314.392C142.531 316.784 142.22 318.619 142.766 321.348C143.772 323.452 144.732 325.04 146.826 326.106C149.592 327.131 151.52 327.082 154.327 326.058L155.794 325.412C156.726 325.002 169.001 318.712 169.93 318.295L171.025 317.802C181 313.351 190.803 308.563 200.46 303.458C202.485 302.378 204.511 301.302 206.556 300.26C207.717 299.672 208.876 299.082 210.035 298.492L211.785 297.601C212.127 297.429 212.47 297.26 212.812 297.091C216.454 295.289 220.003 293.533 222.184 289.921C222.779 287.728 222.768 286.045 222.184 283.855ZM291.07 283.288C290.267 279.355 288.197 276.929 285 274.408C280.193 272.359 275.764 272.032 271.051 274.448L236.874 296.649L234.836 297.758C233.326 298.584 231.815 299.409 230.302 300.231L227.879 301.549L227.112 301.968C214.668 308.745 202.22 315.525 189.598 321.986L187.986 322.808C182.147 325.789 176.282 328.709 170.349 331.508L168.646 332.308C165.966 333.568 155.659 338.371 152.965 339.603L151.481 340.281L148.694 341.567C144.423 343.512 141.364 345.734 138.393 349.316C134.649 357.449 138.544 364.006 146.743 367.191C151.689 367.963 156.44 367.589 160.828 365.513L162.788 364.552C164.295 363.826 165.801 363.099 167.307 362.372C169.751 361.174 179.823 356.451 182.282 355.284C196.874 348.412 211.093 340.886 225.275 333.251C226.839 332.409 228.404 331.568 229.97 330.728C232.498 329.375 235.022 328.017 237.543 326.654L240.396 325.108L241.01 324.779C246.487 321.848 284.307 297.718 288.805 293.418C291.03 290.079 291.394 287.172 291.07 283.288ZM199.014 147.463C197.668 146.793 196.317 146.132 194.963 145.48C189.754 143.066 185.787 142.099 180.972 145.745C178.88 148.205 177.999 150.54 178.152 153.764C179.247 157.408 181.069 159.711 184.329 161.607C185.293 162.056 186.255 162.509 187.215 162.965L188.295 163.479C204.782 171.206 220.453 180.372 235.628 190.497C236.131 190.837 236.634 191.188 237.141 191.541C240.297 193.74 243.557 196.012 247.398 196.333C250.904 195.983 252.725 194.42 255.01 191.785C256.303 189.158 256.262 187.006 255.961 184.124C255.76 183.123 255.617 182.416 255.321 181.784C254.611 180.268 253.015 179.181 247.592 175.485L246.376 174.672C231.754 164.851 216.525 156.091 200.76 148.32L199.014 147.463ZM293.648 134.854C290.592 132.394 287.499 129.904 283.978 128.29C279.927 127.638 277.511 128.176 274.465 131.134C272.614 134.018 272.585 136.842 272.88 140.232C274.512 143.744 277.108 145.714 280.068 147.854C281.11 148.593 282.149 149.336 283.186 150.084L284.763 151.221C293.251 157.302 301.507 163.727 309.644 170.336C311.715 172.03 330.432 185.994 332.534 187.643L333.781 188.582C335.073 189.563 335.876 190.031 337.446 190.316C340.541 190.461 342.909 189.88 345.254 187.592C347.356 185.009 347.397 182.512 347.366 179.177C346.902 176.126 345.533 174.527 343.273 172.693L342.394 172.002L340.52 170.494C339.386 169.594 321.627 156.393 320.504 155.477C314.099 150.252 307.57 145.204 300.924 140.339L300.886 140.312C298.717 138.728 296.551 137.147 294.433 135.485C294.171 135.276 293.91 135.065 293.648 134.854ZM85.9187 167.192C83.6337 162.623 78.6915 160.103 73.9952 162.979C72.0076 164.726 70.9404 166.715 70.3944 169.295L70.2003 170.33C68.1707 180.596 66.5967 190.968 65.2397 201.343L64.9108 203.888C64.7506 205.095 64.5909 206.302 64.4394 207.51L64.3002 208.632C63.5374 214.32 63.9247 219.278 69.6624 221.699C72.3542 222.185 74.5426 221.809 76.8343 220.264C79.2259 217.873 79.714 215.012 80.0784 211.732C80.1526 211.015 80.2299 210.298 80.3102 209.582L80.4432 208.402C81.4496 199.317 82.786 190.328 84.4202 181.335C84.56 180.568 84.7108 179.795 84.8624 179.019C85.6228 175.123 86.4037 171.122 85.9187 167.192ZM115.913 302.139C114.714 298.666 112.975 296.157 109.613 294.244C104.223 292.154 98.6371 292.764 94.5495 296.643C88.1014 303.838 88.1014 303.838 93.5 360.515C93.5535 361.085 93.6068 361.639 93.66 362.193C93.7189 362.854 93.7719 363.514 93.8247 364.172C94.2344 369.281 94.6355 374.28 97.7107 378.742C100.398 381.164 102.727 382.158 106.445 382.503C110.802 382.703 113.655 381.415 116.909 378.792C120.11 374.976 120.086 371.075 119.819 366.399C119.67 364.974 119.522 363.548 119.381 362.122L119.221 360.484C118.314 351.417 117.546 342.363 117.195 333.266L117.099 330.617C116.939 326.245 116.783 321.874 116.666 317.501C116.622 315.834 116.573 314.166 116.519 312.499L116.441 310.142C116.391 307.453 116.329 304.807 115.913 302.139ZM105.234 87.456C101.784 89.2096 100.022 91.5055 98.36 94.5417L97.6564 95.8897C91.2903 108.029 85.8992 120.638 81.4226 133.362L81.0028 134.561C80.799 135.132 80.5832 135.714 80.3643 136.304C78.74 140.684 76.9418 145.533 78.5576 149.994C81.9252 156.055 89.5044 157.375 95.6386 154.803C100.114 151.864 100.114 151.864 102.704 143.764C103.439 141.408 104.198 139.057 104.982 136.712L105.46 135.286C107.914 127.925 111.075 120.836 114.649 113.814C115.448 112.25 116.242 110.685 117.033 109.119C117.614 107.963 118.207 106.811 118.811 105.664C124.929 94.1091 117.757 84.2718 105.234 87.456ZM274.71 192.951C274.27 192.692 273.791 192.482 272.894 192.089C269.026 191.624 266.56 191.623 263.338 193.557C261.051 195.141 259.638 196.768 259.131 199.33C258.869 202.521 259.916 204.787 262.272 207.33C265.712 210.56 268.651 213.824 270.874 217.776C273.489 223.587 274.39 229.796 271.646 235.663C270.889 237.161 270.192 238.649 269.586 240.198C268.931 243.953 269.944 246.509 272.498 249.595C274.228 251.024 275.474 251.799 277.863 252.093C281.969 252.259 284.11 251.741 287.269 249.497C293.548 243.753 294.258 234.104 294.312 226.551C293.93 215.124 287.393 203.393 277.901 195.38L276.648 194.389C275.671 193.61 275.216 193.248 274.71 192.951ZM229.019 93.8885C226.948 92.6744 224.873 91.4958 222.751 90.3784C217.146 87.9281 211.849 88.6444 208.552 94.4199C207.422 97.2443 207.302 99.4099 208.06 102.422C208.573 103.72 208.926 104.614 209.445 105.384C210.591 107.086 212.547 108.186 218.824 111.718C221.959 113.456 223.853 114.541 223.853 114.541C226.554 116.07 229.237 117.635 231.899 119.238L233.394 120.139C236.039 121.72 238.683 123.301 241.291 124.949L243.078 126.083L246.625 128.29C250.878 131.063 254.291 132.691 259.383 131.811C261.742 130.764 263.026 129.379 264.507 127.207C265.861 124.306 265.73 121.47 265.216 118.341C264.177 114.885 264.177 114.885 257.977 111.358C255.522 109.972 253.1 108.523 250.713 107.012C244.314 102.96 237.88 98.9783 231.325 95.2092L229.019 93.8885ZM187.401 77.0606L186.259 76.708C171.453 72.0546 144.563 64.6786 129.864 72.937C127.745 74.8728 126.918 76.5163 126.475 79.4966C126.503 82.262 127.325 84.5101 129.025 86.5502C131.593 88.865 131.593 88.865 140.527 88.5457C142.402 88.4753 144.277 88.4351 146.152 88.3948L147.525 88.3666C153.476 88.2283 159.268 88.6789 165.15 89.7141L166.819 90.0239C171.136 90.8158 175.349 91.7774 179.553 93.1274C182.615 94.1619 185.478 94.9387 188.685 95.209C191.621 94.2386 193.415 93.1299 194.963 90.181C195.617 87.2032 195.686 85.7464 194.927 82.7962C193.164 79.5394 190.651 78.1529 187.401 77.0606ZM267.289 256.882C266.964 254.382 265.699 253.031 263.815 251.469C260.448 249.411 257.124 250.362 254.207 252.606C248.506 257.061 242.633 261.409 236.418 265.123L235.512 265.656L234.636 266.173C234.16 266.454 233.673 266.729 233.184 267.007C230.499 268.528 227.739 270.092 226.159 272.798C225.283 274.94 225.376 276.872 226.009 279.074C227.177 281.365 228.467 282.736 230.791 283.855C232.269 284.019 233.401 284.144 234.518 284.062C238.156 283.794 241.633 281.319 256.438 270.778L257.536 269.989C260.227 268.061 262.789 266.028 265.216 263.773C267.238 261.548 267.329 259.77 267.289 256.882ZM374.405 208.873C372.732 205.449 371.354 203.178 367.276 201.143C360.462 199.674 356.285 201.502 353.121 206.406C352.887 208.577 353.024 210.126 353.915 212.194C354.688 213.591 355.429 214.998 356.136 216.417C363.106 231.07 362.935 247.689 354.995 262.044C353.196 265.256 352.422 267.388 353.121 270.884C354.697 273.04 356.179 274.031 358.794 275.408C362.055 276.318 363.357 277.067 366.687 276.385C369.84 275.174 371.611 272.34 373.049 269.871L373.936 268.253L374.955 266.469C384.399 248.712 383.873 228.216 375.153 210.359L374.405 208.873Z" fill="url(#iso_paint1)"/>
    <path fill-rule="evenodd" clip-rule="evenodd" d="M170.376 145.984L170.188 147.125C169.467 151.406 168.577 155.657 167.672 159.906L167.131 162.466C166.757 164.239 166.381 166.011 166.005 167.783C165.526 170.034 165.049 172.286 164.576 174.538C164.296 175.863 164.02 177.165 163.744 178.469C163.476 179.735 163.207 181.003 162.934 182.297C162.109 186.207 161.268 190.113 160.315 193.999C159.362 197.884 157.503 199.388 154.148 200.739C150.311 201.425 147.645 201.286 143.862 199.839C138.87 196.911 137.319 194.005 138.41 188.567L138.669 187.192C138.953 185.693 139.248 184.196 139.544 182.699C139.746 181.653 139.948 180.607 140.149 179.56C141.635 171.906 143.234 164.272 144.883 156.647L145.21 155.133C145.804 152.395 146.411 149.659 147.036 146.926C147.287 145.821 147.527 144.714 147.767 143.607C147.91 142.982 148.054 142.357 148.199 141.733L148.552 140.157C149.42 137.974 150.99 136.259 153.848 135.253C161.36 132.835 171.954 136.711 170.376 145.984ZM157.871 213.083C156.74 210.693 155.14 209.08 152.127 207.784C148.822 206.782 145.167 206.724 142.145 208.023L140.703 208.772L139.257 209.498C136.652 211.457 136.258 214.069 135.907 216.714L135.775 217.88C134.035 232.761 133.536 247.825 134.876 262.824L135.026 264.325C135.315 267.553 135.858 269.927 138.287 272.75C141.373 274.723 143.869 275.313 147.914 275.421C151.22 275.234 153.023 274.092 155.226 272.468C157.747 269.335 157.747 269.335 157.04 261.729C156.099 252.214 156.042 242.79 156.71 233.309C156.789 232.19 156.867 231.071 156.944 229.952L156.953 229.812C157.104 227.594 157.256 225.377 157.437 223.161C157.526 222.077 157.609 220.992 157.687 219.907L157.795 218.367C157.959 216.594 158.113 214.865 157.871 213.083Z" fill="url(#iso_paint2)"/>
    <path fill-rule="evenodd" clip-rule="evenodd" d="M170.233 101.542L167.576 100.356C166.892 100.047 166.202 99.7186 165.504 99.3877C161.31 97.3969 156.864 95.287 152.157 96.1961C149.351 97.0155 147.435 99.2603 145.972 101.582C145.261 104.095 145.16 106.001 145.972 108.495C147.967 112.009 147.967 112.009 161.488 117.818C170.065 121.503 178.537 125.336 186.904 129.446L188.611 130.288C202.938 137.336 217.065 144.709 230.961 152.509L232.139 153.171C234.231 154.337 272.43 176.766 274.465 178.023C275.114 178.428 275.768 178.851 276.421 179.275C280.077 181.645 283.857 184.096 288.333 184.234C290.932 183.932 292.73 183.266 294.658 181.51C296.741 179.136 297.657 176.963 297.501 173.882C296.024 169.242 292.942 167.213 288.805 164.808L287.16 163.871C281.057 160.354 238.786 135.663 232.604 132.274C230.852 131.315 229.1 130.356 227.353 129.389C211.855 120.79 195.805 113.141 179.627 105.793L178.378 105.226C175.667 103.988 172.952 102.761 170.233 101.542Z" fill="url(#iso_paint3)"/>
    <path d="M140 134.5C140 141.404 134.404 147 127.5 147C120.596 147 115 141.404 115 134.5C115 127.596 120.596 122 127.5 122C134.404 122 140 127.596 140 134.5Z" fill="#01A3EE"/>
    <circle cx="148" cy="292" r="11" fill="#00A2EE"/>
    <ellipse cx="132" cy="387.5" rx="10" ry="10.5" fill="#00A2EE"/>
    <path d="M320.5 206C320.5 206 328.935 224.552 328.5 239C328.101 252.259 321.5 270.5 321.5 270.5" stroke="url(#iso_paint4)" stroke-width="26" stroke-linecap="round"/>
  </g>
  <g transform="translate(96, 0) scale(0.41237)">
    <path d="M103.134 107.981C105.925 92.1435 108.265 76.576 119.01 64.0971C133.912 46.7914 152.731 40.9116 174.689 46.2879C189.665 49.9545 197.837 60.7065 200.746 75.4457C205.842 101.264 189.119 130.568 164.479 139.231C149.37 144.542 135.044 144.252 122.367 132.11C119.577 137.387 119.396 142.908 118.307 148.111C115.621 160.949 113.22 173.851 110.987 186.776C110.202 191.321 108.429 193.524 103.5 192.916C98.2726 192.272 92.937 193.678 86.6763 192.498C92.1625 164.281 97.5956 136.338 103.134 107.981ZM142.28 120.621C151.263 122.549 159.131 120.209 165.869 114.153C173.693 107.121 177.764 98.0974 178.261 87.727C179.029 71.718 166.749 62.241 151.289 66.5312C138.427 70.1006 127.944 85.102 127.981 99.8879C128.006 110.294 132.318 116.812 142.28 120.621Z" fill="white"/>
    <path d="M603.442 121.106C589.992 136.993 573.365 144.444 552.834 141.813C532.672 139.229 519.379 123.784 519.725 103.273C520.039 84.7037 526.768 68.7806 541.11 56.6562C553.84 45.8935 568.43 41.9106 584.879 46.1438C590.462 47.5807 594.936 51.038 599.799 54.8294C602.823 44.2583 604.179 33.907 606.33 23.7337C607.669 17.3979 608.913 11.0394 610.048 4.66424C610.512 2.05885 611.768 0.988612 614.419 1.05772C619.081 1.17922 623.754 1.20797 628.414 1.04402C632.234 0.909572 633.365 2.29144 632.608 6.1293C628.845 25.2024 625.303 44.3191 621.628 63.41C619.525 74.3398 617.297 85.2455 615.163 96.1696C613.371 105.347 609.338 113.465 603.442 121.106ZM550.928 77.1706C547.366 81.8927 545.046 87.1389 543.802 92.9448C541.439 103.974 544.721 113.728 552.614 118.494C560.989 123.551 572.465 121.925 580.814 114.526C588.136 108.037 592.156 99.8021 593.249 90.2027C595.111 73.843 584.489 63.2459 568.875 65.8489C561.657 67.0522 556.055 71.1476 550.928 77.1706Z" fill="url(#wm_paint0)"/>
    <path d="M228.253 138.133C210.379 127.671 203.62 110.332 208.637 88.4852C214.419 63.3067 235.448 45.2571 261.264 44.4367C281.948 43.7793 299.766 54.0981 302.52 77.6562C303.049 82.176 301.757 83.8384 297.588 85.0055C277.094 90.7435 256.676 96.7522 236.235 102.677C234.35 103.223 232.32 103.429 230.765 104.749C231.68 116.809 244.023 124.821 256.799 121.579C264.75 119.561 271.07 115.091 274.861 107.726C276.475 104.589 278.596 103.37 281.934 103.424C287.531 103.514 293.131 103.449 298.812 103.449C295.886 126.521 262.283 152.852 228.253 138.133ZM233.818 85.323C238.546 85.2204 242.833 83.2546 247.287 82.0462C257.147 79.3711 266.942 76.4543 276.785 73.6299C274.596 67.3805 267.363 63.4057 259.706 63.8475C246.96 64.5829 235.604 73.669 233.818 85.323Z" fill="white"/>
    <path d="M62.9133 44.9725C83.2609 47.0505 95.977 61.4009 97.1926 81.6589C98.8676 109.571 78.8816 135.646 52.1363 141.311C28.9054 146.232 7.52747 135.802 1.92562 115.654C-1.57551 103.061 -0.216118 90.561 5.30131 78.6889C15.0362 57.7419 31.2952 45.9557 54.5433 44.3729C57.1627 44.1946 59.8303 44.7245 62.9133 44.9725ZM24.2117 91.5522C24.0202 93.0374 23.8785 94.531 23.6295 96.0065C20.6802 113.486 35.0865 125.939 51.6519 119.787C64.7376 114.928 71.5567 104.595 73.3941 91.104C74.6452 81.917 73.2727 73.0755 64.2051 68.098C55.2604 63.1881 46.4518 65.1663 38.3144 70.6049C31.0535 75.4577 27.0109 82.6288 24.2117 91.5522Z" fill="white"/>
    <path d="M335.391 84.071C332.048 101.28 328.725 118.07 325.66 134.907C324.943 138.846 323.127 140.167 319.271 139.889C315.293 139.601 311.271 139.675 307.281 139.864C303.293 140.053 301.862 138.633 302.689 134.557C306.224 117.137 309.616 99.6873 313.046 82.2455C315.065 71.9775 317.197 61.7285 318.987 51.4203C319.624 47.748 321.253 46.3022 324.925 46.33C336.896 46.4204 341.7 44.9258 360.758 44.5892C376.868 42.6816 390.857 55.3259 393.147 71.4636C394.693 82.357 391.643 92.5918 389.88 103.021C388.109 113.503 385.813 123.895 383.928 134.36C383.238 138.191 381.793 140.295 377.42 139.885C373.29 139.499 369.093 139.674 364.933 139.811C361.092 139.937 360.058 138.534 360.841 134.685C363.984 119.217 366.855 103.694 369.818 88.1902C370.036 87.0503 370.266 85.9032 370.353 84.7491C371.211 73.3971 367.41 67.104 358.888 65.7084C347.953 63.9178 338.952 69.4989 336.284 79.7527C335.949 81.0385 335.761 82.3624 335.391 84.071Z" fill="white"/>
    <path d="M441.004 95.832C448.408 81.2445 455.87 67.0978 462.733 52.6656C465.114 47.6574 468.082 45.759 473.486 46.2176C478.703 46.6603 483.987 46.3134 488.814 46.3134C489.909 48.7025 489.014 49.8276 488.408 50.9564C473.376 78.9826 458.257 106.963 443.358 135.06C441.426 138.704 439.11 140.139 435.113 139.863C431.134 139.588 427.096 139.527 423.129 139.879C418.929 140.251 417.175 138.537 416.451 134.539C413.192 116.556 409.725 98.6108 406.376 80.6442C404.549 70.8436 402.967 60.9941 400.946 51.2346C400.159 47.4332 401.592 46.3747 404.936 46.3824C409.434 46.3929 413.938 46.504 418.427 46.2943C422.779 46.0909 424.518 47.8597 425.12 52.2637C427.634 70.683 430.517 89.0518 433.29 107.436C433.358 107.89 433.703 108.303 434.086 109.069C437.179 105.003 438.676 100.404 441.004 95.832Z" fill="url(#wm_paint1)"/>
    <path d="M516.097 66.6983C511.66 89.9209 507.258 112.717 502.903 135.521C502.311 138.623 500.775 140.029 497.462 139.855C492.983 139.62 488.48 139.672 483.994 139.813C480.202 139.932 479.081 138.649 479.881 134.739C484.069 114.271 488.027 93.7566 492.049 73.2551C493.518 65.7675 495.019 58.2849 496.345 50.7716C496.858 47.8645 498.119 46.2925 501.233 46.3436C506.055 46.4228 510.879 46.378 515.702 46.3325C518.738 46.3038 519.886 47.4955 519.183 50.6448C518.027 55.8226 517.144 61.0612 516.097 66.6983Z" fill="url(#wm_paint2)"/>
    <path d="M503.501 20.1523C500.655 10.8349 505.164 2.46105 513.757 0.411426C522.202 -1.60279 528.731 3.9868 528.028 12.6294C527.577 18.1794 523.214 23.1626 517.215 24.9798C511.545 26.6973 507.717 25.4373 503.501 20.1523Z" fill="url(#wm_paint3)"/>
  </g>
</svg>